<?xml version="1.0" encoding="UTF-8"?>
<svg width="429px" height="34px" viewBox="0 0 429 34" version="1.1" xmlns="http://www.w3.org/2000/svg" xmlns:xlink="http://www.w3.org/1999/xlink">
    <title>Artboard Copy</title>
    <defs>
        <linearGradient x1="-0.000210055533%" y1="49.9997993%" x2="100.000088%" y2="49.9997993%" id="linearGradient-1">
            <stop stop-color="#00B4E6" offset="30%"></stop>
            <stop stop-color="#088CCB" offset="100%"></stop>
        </linearGradient>
    </defs>
    <g id="Artboard-Copy" stroke="none" stroke-width="1" fill="none" fill-rule="evenodd">
        <g id="Group" transform="translate(0.000000, 1.018723)">
            <g id="Arca" transform="translate(0.000000, 5.981277)" fill="#FFFFFF" fill-rule="nonzero">
                <path d="M15.365875,0 C15.572875,0 15.742125,0.041625 15.8925,0.124875 C16.043,0.18725 16.155875,0.291375 16.249875,0.437 C16.344,0.58275 16.400375,0.77 16.419125,0.978125 L16.419125,0.978125 L17.67925,18.75125 C17.698125,19.0635 17.811,19.334 17.999,19.563 C18.111875,19.708625 18.2435,19.8335 18.375125,19.937625 L18.375125,19.937625 L12.093375,19.937625 C11.604375,19.937625 11.37875,19.8335 11.3035,19.771125 C11.209375,19.687875 11.13425,19.521375 11.115375,19.25075 L11.115375,19.25075 L10.870875,16.149875 C10.852125,15.87925 10.64525,15.671125 10.40075,15.671125 L10.40075,15.671125 L9.499,15.671 L9.985625,12.23725 L10.94475,12.23725 L10.493375,9.386 L12.204875,0 Z M9.346125,9.386 L7.898,12.23725 L8.706625,12.23725 L8.126,15.671 L7.203375,15.671125 C7.042125,15.671125 6.89474235,15.747625 6.80853608,15.8874005 L6.77075,15.9625 L5.642375,18.48075 C5.585875,18.605625 5.54825,18.7305 5.54825,18.876125 C5.5295,18.98025 5.5295,19.0635 5.5295,19.125875 C5.54825,19.354875 5.6235,19.58375 5.755125,19.771125 C5.79275,19.8335 5.84925,19.896 5.905625,19.958375 L5.905625,19.958375 L0.677125,19.958375 C0.432625,19.958375 0.2445,19.896 0.131625,19.791875 C0.037625,19.708625 0,19.604625 0,19.47975 C0,19.458875 0,19.41725 0.037625,19.334 C0.056375,19.271625 0.07525,19.209125 0.094,19.14675 L0.094,19.14675 L8.181375,1.769 C8.219,1.664875 8.256625,1.560875 8.275375,1.456875 C8.313,1.35275 8.313,1.227875 8.313,1.061375 C8.29425,0.811625 8.23775,0.58275 8.106125,0.374625 C8.030875,0.228875 7.918125,0.104 7.80525,0 L7.80525,0 L10.982375,0 L9.346125,9.386 Z" id="Combined-Shape"></path>
                <path d="M33.96725,4.390875 L33.308875,7.49175 C33.17725,7.88725 32.970375,8.15775 32.6695,8.345125 C32.330875,8.55325 31.898375,8.6365 31.3905,8.6365 L30.205625,8.6365 C29.622625,8.6365 29.19,8.7405 28.889125,8.969375 C28.550625,9.198375 28.324875,9.573 28.230875,10.030875 L26.5005,18.27225 C26.48175,18.37625 26.462875,18.480375 26.462875,18.584375 C26.462875,18.667625 26.462875,18.750875 26.462875,18.87575 C26.462875,19.146375 26.538125,19.37525 26.651,19.60425 C26.72625,19.749875 26.82025,19.87475 26.933125,19.97875 L20.670125,19.97875 C20.519625,19.97875 20.40675,19.937125 20.350375,19.87475 C20.294,19.81225 20.256375,19.749875 20.256375,19.687375 C20.256375,19.666625 20.256375,19.625 20.275125,19.500125 C20.294,19.37525 20.31275,19.27125 20.331625,19.167125 L23.021125,6.368 C23.05875,6.22225 23.0775,6.11825 23.0775,6.014125 C23.0775,5.993375 23.0775,5.993375 23.0775,5.9725 C23.0775,5.8685 23.0775,5.78525 23.0775,5.660375 C23.0775,5.369 23.00225,5.11925 22.870625,4.911125 C22.795375,4.78625 22.720125,4.68225 22.626125,4.578125 L28.080375,4.578125 C28.550625,4.578125 28.738625,4.68225 28.813875,4.744625 C28.889125,4.807125 28.964375,4.911125 28.964375,5.160875 C28.964375,5.223375 28.964375,5.34825 28.92675,5.51475 C28.907875,5.68125 28.87025,5.847625 28.813875,6.05575 C28.77625,6.22225 28.795125,6.38875 28.889125,6.513625 C28.983125,6.6385 29.11475,6.72175 29.26525,6.72175 L29.60375,6.72175 C29.773125,6.72175 29.9235,6.61775 29.99875,6.472 C30.186875,6.11825 30.374875,5.806 30.525375,5.51475 C30.675875,5.265 30.82625,5.036 30.958,4.8695 C31.108375,4.703 31.258875,4.599 31.428125,4.51575 C31.61625,4.4325 31.841875,4.390875 32.142875,4.390875 L33.96725,4.390875 L33.96725,4.390875 Z" id="Path"></path>
                <path d="M49.728,0 C49.709125,0.104 49.690375,0.228875 49.6715,0.35375 L49.65275,0.41625 C49.5775,0.77 49.521125,1.123875 49.445875,1.477625 C49.370625,1.85225 49.295375,2.164375 49.220125,2.45575 C49.145,2.78875 49.06975,3.059375 48.956875,3.267375 C48.862875,3.45475 48.75,3.579625 48.561875,3.683625 C48.373875,3.78775 48.072875,3.850125 47.69675,3.850125 L44.85675,3.850125 C44.311375,3.850125 43.86,3.95425 43.502625,4.183125 C43.14525,4.412125 42.863125,4.72425 42.675125,5.119625 C42.50575,5.4735 42.393,5.868875 42.31775,6.3475 L40.813125,13.548375 C40.662625,14.297625 40.719,14.880375 41.03875,15.33825 C41.33975,15.77525 41.866375,16.025 42.599875,16.025 L46.1545,16.025 C46.361375,16.025 46.587125,15.983375 46.850375,15.900125 C47.094875,15.816875 47.320625,15.71275 47.508625,15.567125 L46.90675,18.439125 C46.850375,18.772125 46.7375,19.0635 46.587125,19.292375 C46.455375,19.5005 46.22975,19.667 45.92875,19.791875 C45.59025,19.937625 45.120125,20 44.499375,20 L38.368125,20 C37.3525,20 36.524875,19.875125 35.8855,19.64625 C35.283625,19.438125 34.813375,19.125875 34.5125,18.7305 C34.19275,18.335125 33.985875,17.87725 33.891875,17.31525 C33.779,16.71175 33.76025,16.04575 33.835375,15.317375 C33.891875,14.547375 34.0235,13.694125 34.230375,12.82 L35.735,5.49425 C35.941875,4.537 36.224,3.72525 36.581375,3.0385 C36.93875,2.35175 37.3525,1.78975 37.822625,1.35275 C38.292875,0.91575 38.800625,0.58275 39.32725,0.374625 C39.87275,0.1665 40.418125,0.062375 40.982375,0.062375 L49.728,0.062375 L49.728,0 Z" id="Path"></path>
                <path d="M64.623375,5.3905 C64.435375,5.057625 64.172,4.807875 63.852375,4.6205 C63.495,4.43325 63.08125,4.35 62.62975,4.35 L53.602125,4.35 L53.113125,6.53525 C53.113125,6.556 53.113125,6.556 53.09425,6.576875 C53.0755,6.6185 53.0755,6.70175 53.056625,6.785 C53.037875,6.889 53.037875,6.951375 53.037875,7.013875 C53.037875,7.30525 53.113125,7.3885 53.131875,7.40925 C53.1695,7.450875 53.33875,7.555 53.82775,7.555 L57.4765,7.555 C57.98425,7.555 58.247625,7.763125 58.398125,7.950375 C58.605,8.221 58.661375,8.616375 58.5485,9.115875 C58.47325,9.4905 58.28525,9.802625 58.04075,9.989875 C57.815,10.156375 57.514125,10.2605 57.194375,10.2605 L53.5645,10.2605 C52.812125,10.2605 52.153875,10.406125 51.589625,10.718375 C51.04425,11.00975 50.55525,11.53 50.16025,12.21675 C49.7465,12.94525 49.408,13.944125 49.144625,15.192875 L49.107,15.463375 C49.08825,15.609125 49.069375,15.775625 49.03175,15.92125 C48.99425,16.19175 48.956625,16.42075 48.93775,16.628875 C48.919,16.85775 48.900125,17.045125 48.900125,17.211625 C48.900125,17.981625 49.013,18.564375 49.201125,18.95975 C49.389125,19.334375 49.633625,19.584125 49.953375,19.709 C50.31075,19.8755 50.762125,19.95875 51.28875,19.937875 L52.41725,19.937875 C52.962625,19.937875 53.376375,19.917125 53.714875,19.833875 C54.034625,19.771375 54.298,19.688125 54.504875,19.5425 C54.71175,19.39675 54.899875,19.23025 55.069125,19.001375 C55.257125,18.730875 55.464,18.397875 55.652125,18.002375 C55.746125,17.835875 55.896625,17.731875 56.065875,17.731875 L56.4045,17.731875 C56.554875,17.731875 56.6865,17.815125 56.780625,17.94 C56.874625,18.064875 56.91225,18.231375 56.874625,18.377 L56.799375,18.7725 C56.76175,18.95975 56.76175,19.147 56.780625,19.3135 C56.799375,19.417625 56.855875,19.500875 56.968625,19.56325 C57.043875,19.604875 57.213125,19.709 57.608125,19.709 L62.987125,19.709 C62.968375,19.688125 62.9495,19.667375 62.93075,19.6465 C62.742625,19.438375 62.648625,19.167875 62.648625,18.85575 C62.648625,18.71 62.667375,18.585125 62.68625,18.4395 C62.705,18.335375 62.723875,18.2105 62.742625,18.064875 L64.867875,7.950375 C64.88675,7.8255 64.924375,7.679875 64.943125,7.534125 C64.962,7.3885 64.98075,7.222 64.98075,7.0555 C64.999625,6.90975 64.999625,6.764125 64.999625,6.660125 C64.9055,6.181375 64.8115,5.744375 64.623375,5.3905 Z M57.758625,12.903625 L57.1755,15.6715 C57.119125,15.98375 56.9875,16.25425 56.799375,16.483125 C56.57375,16.732875 56.291625,16.85775 55.971875,16.85775 L55.765,16.85775 C55.44525,16.85775 55.20075,16.7745 55.0315,16.58725 C54.843375,16.399875 54.749375,16.1085 54.749375,15.75475 C54.749375,15.65075 54.749375,15.546625 54.768125,15.442625 C54.787,15.3385 54.787,15.2345 54.80575,15.15125 L54.80575,15.130375 L55.0315,14.069 C55.1255,13.611125 55.238375,13.257375 55.388875,13.007625 C55.558125,12.71625 55.746125,12.508125 55.990625,12.404125 C56.216375,12.3 56.442,12.258375 56.66775,12.258375 L57.288375,12.258375 C57.438875,12.258375 57.5705,12.320875 57.664625,12.44575 C57.758625,12.570625 57.79625,12.737125 57.758625,12.903625 Z" id="Shape"></path>
            </g>
            <g id="Frame-1-(2)" transform="translate(75.000000, 2.981277)">
                <path d="M34.0003,10.3516 C34.0003,16.0686 29.2929,20.7032 23.486,20.7032 C17.6791,20.7032 12.9717,16.0686 12.9717,10.3516 C12.9717,4.63457 17.6791,0 23.486,0 C29.2929,0 34.0003,4.63457 34.0003,10.3516 Z" id="Path" fill="#F79F1A"></path>
                <path d="M21.0286,10.3516 C21.0286,16.0686 16.3212,20.7032 10.5143,20.7032 C4.70742,20.7032 0,16.0686 0,10.3516 C0,4.63457 4.70742,0 10.5143,0 C16.3212,0 21.0286,4.63457 21.0286,10.3516 Z" id="Path" fill="#EA001B"></path>
                <path d="M16.9997,2.20264 C14.5464,4.09768 12.9717,7.04246 12.9717,10.3505 C12.9717,13.6586 14.5464,16.6056 16.9997,18.5007 C19.4529,16.6056 21.0277,13.6586 21.0277,10.3505 C21.0277,7.04246 19.4529,4.09768 16.9997,2.20264 Z" id="Path" fill="#FF5F01"></path>
                <path d="M33.9792,15.8453 L33.9792,15.4758 L33.881,15.4758 L33.7681,15.7299 L33.6552,15.4758 L33.557,15.4758 L33.557,15.8453 L33.6263,15.8453 L33.6263,15.5666 L33.7322,15.8068 L33.8041,15.8068 L33.9099,15.566 L33.9099,15.8453 L33.9792,15.8453 Z M33.3575,15.8453 L33.3575,15.5389 L33.4833,15.5389 L33.4833,15.4765 L33.1631,15.4765 L33.1631,15.5389 L33.2888,15.5389 L33.2888,15.8453 L33.3575,15.8453 Z" id="Shape" fill="#F79F1A" fill-rule="nonzero"></path>
                <path d="M2.3398,25.8256 L1.74316,25.8256 L1.74316,23.0895 L2.32811,23.0895 L2.32811,23.4229 C2.32811,23.4229 2.84188,23.0155 3.14703,23.0206 C3.74035,23.0305 4.09463,23.5264 4.09463,23.5264 C4.09463,23.5264 4.38203,23.0206 5.03054,23.0206 C5.98955,23.0206 6.13023,23.8828 6.13023,23.8828 L6.13023,25.8141 L5.55699,25.8141 L5.55699,24.1127 C5.55699,24.1127 5.55904,23.5954 4.93695,23.5954 C4.29364,23.5954 4.23502,24.1127 4.23502,24.1127 L4.23502,25.8141 L3.63838,25.8141 L3.63838,24.1012 C3.63838,24.1012 3.58106,23.5609 3.04174,23.5609 C2.34128,23.5609 2.32811,24.1127 2.32811,24.1127 L2.3398,25.8256 Z" id="Path" fill="#FFFFFF" fill-rule="nonzero"></path>
                <path d="M20.4845,23.0196 C20.1794,23.0145 19.6656,23.4219 19.6656,23.4219 L19.6656,23.0893 L19.0801,23.0893 L19.0801,25.8247 L19.6771,25.8247 L19.6656,24.112 C19.6656,24.112 19.6788,23.5613 20.3793,23.5613 C20.5094,23.5613 20.6104,23.5922 20.6904,23.6399 L20.6904,23.6377 L20.8848,23.105 C20.7675,23.0565 20.6341,23.0221 20.4845,23.0196 Z" id="Path" fill="#FFFFFF" fill-rule="nonzero"></path>
                <path d="M28.8888,23.0196 C28.5837,23.0145 28.0699,23.4219 28.0699,23.4219 L28.0699,23.0893 L27.4844,23.0893 L27.4844,25.8247 L28.0814,25.8247 L28.0699,24.112 C28.0699,24.112 28.0831,23.5613 28.7836,23.5613 C28.9137,23.5613 29.0147,23.5922 29.0947,23.6399 L29.0947,23.6377 L29.2891,23.105 C29.1718,23.0565 29.0383,23.0221 28.8888,23.0196 L28.8888,23.0196 Z" id="Path" fill="#FFFFFF" fill-rule="nonzero"></path>
                <path d="M8.06023,23.0083 C7.16731,23.0083 6.69478,23.7969 6.6923817,24.4558 C6.68994,25.1311 7.23033,25.91 8.08539,25.91 C8.58423,25.91 8.99402,25.5482 8.99402,25.5482 L8.99294,25.8269 L9.5802,25.8269 L9.5802,23.0881 L8.99087,23.0881 L8.99087,23.4331 C8.99087,23.4331 8.60603,23.0083 8.06023,23.0083 L8.06023,23.0083 Z M8.1746,23.5657 C8.65433,23.5657 9.0438,23.9758 9.0438,24.4805 C9.0438,24.9853 8.65433,25.3931 8.1746,25.3931 C7.69486,25.3931 7.30769,24.9853 7.30769,24.4805 C7.30769,23.9758 7.69486,23.5657 8.1746,23.5657 Z" id="Shape" fill="#FFFFFF" fill-rule="nonzero"></path>
                <path d="M25.1862,23.0083 C24.2933,23.0083 23.8208,23.7969 23.8183914,24.4558 C23.8159,25.1311 24.3563,25.91 25.2114,25.91 C25.7102,25.91 26.12,25.5482 26.12,25.5482 L26.1189,25.8269 L26.7062,25.8269 L26.7062,23.0881 L26.1168,23.0881 L26.1168,23.4331 C26.1168,23.4331 25.732,23.0083 25.1862,23.0083 L25.1862,23.0083 Z M25.3006,23.5657 C25.7803,23.5657 26.1698,23.9758 26.1698,24.4805 C26.1698,24.9853 25.7803,25.3931 25.3006,25.3931 C24.8208,25.3931 24.4337,24.9853 24.4337,24.4805 C24.4337,23.9758 24.8208,23.5657 25.3006,23.5657 Z" id="Shape" fill="#FFFFFF" fill-rule="nonzero"></path>
                <path d="M30.8259,23.0086 C29.9329,23.0086 29.4604,23.7972 29.457992,24.4561 C29.4556,25.1315 29.996,25.9104 30.851,25.9104 C31.3499,25.9104 31.7596,25.5485 31.7596,25.5485 L31.7586,25.8272 L32.3459,25.8272 L32.3459,22.0073 L31.7565,22.0073 L31.7565,23.4334 C31.7565,23.4334 31.3717,23.0086 30.8259,23.0086 L30.8259,23.0086 Z M30.9402,23.566 C31.42,23.566 31.8094,23.9761 31.8094,24.4808 C31.8094,24.9856 31.42,25.3934 30.9402,25.3934 C30.4605,25.3934 30.0733,24.9856 30.0733,24.4808 C30.0733,23.9761 30.4605,23.566 30.9402,23.566 Z" id="Shape" fill="#FFFFFF" fill-rule="nonzero"></path>
                <path d="M11.372,25.9168 C10.7637,25.9168 10.2021,25.5489 10.2021,25.5489 L10.4595,25.1581 C10.4595,25.1581 10.9909,25.3995 11.372,25.3995 C11.6197,25.3995 12.0339,25.3209 12.0389,25.0776 C12.0442,24.8204 11.3428,24.7442 11.3428,24.7442 C11.3428,24.7442 10.2957,24.7302 10.2957,23.882 C10.2957,23.3486 10.8187,23.0083 11.489,23.0083 C11.8764,23.0083 12.6004,23.3417 12.6004,23.3417 L12.3079,23.79 C12.3079,23.79 11.7489,23.5706 11.4539,23.5601 C11.2048,23.5513 10.9041,23.6685 10.9041,23.882 C10.9041,24.4621 12.6472,23.8368 12.6472,25.0086 C12.6472,25.7774 11.9373,25.9168 11.372,25.9168 L11.372,25.9168 Z" id="Path" fill="#FFFFFF" fill-rule="nonzero"></path>
                <path d="M13.6149,22.2957 L13.6149,23.0913 L13.0957,23.0913 L13.0957,23.6667 L13.6149,23.6667 L13.6149,25.0423 C13.6149,25.0423 13.569,25.9729 14.5871,25.9729 C14.8685,25.9729 15.4196,25.7683 15.4196,25.7683 L15.184,25.1705 C15.184,25.1705 14.9649,25.3542 14.7174,25.348 C14.2469,25.3363 14.26,25.0401 14.26,25.0401 L14.26,23.6667 L15.2298,23.6667 L15.2298,23.0913 L14.26,23.0913 L14.26,22.2957 L13.6149,22.2957 Z" id="Path" fill="#FFFFFF" fill-rule="nonzero"></path>
                <path d="M17.1497,23.042 C16.1922,23.042 15.7139,23.8169 15.7177763,24.4895 C15.7218,25.1812 16.1534,25.9595 17.2069,25.9595 C17.6577,25.9595 18.291,25.5707 18.291,25.5707 L18.0189,25.1054 C18.0189,25.1054 17.5867,25.4066 17.2069,25.4066 C16.4464,25.4066 16.3971,24.6761 16.3971,24.6761 L18.4329,24.6761 C18.4329,24.6761 18.5847,23.042 17.1497,23.042 Z M17.0627,23.5792 C17.0853,23.5779 17.1095,23.5792 17.1337,23.5792 C17.8501,23.5792 17.8450005,24.2445 17.8450005,24.2445 L16.3971,24.2445 C16.3971,24.2445 16.3629,23.6183 17.0627,23.5792 Z" id="Shape" fill="#FFFFFF" fill-rule="nonzero"></path>
                <path d="M23.2048,25.0984 L23.4778,25.6349 C23.4778,25.6349 23.0451,25.9113 22.5596,25.9113 C21.5543,25.9113 20.9961,25.1679 20.9961,24.4644 C20.9961,23.3588 21.8844,23.0337 22.4851,23.0337 C23.0304,23.0337 23.5026,23.3426 23.5026,23.3426 L23.1965,23.8791 C23.1965,23.8791 23.011,23.5946 22.4686,23.5946 C21.9271,23.5946 21.6413,24.0534 21.6413,24.4888 C21.6413,24.9767 21.9739,25.3911 22.4768,25.3911 C22.8714,25.3911 23.2048,25.0984 23.2048,25.0984 L23.2048,25.0984 Z" id="Path" fill="#FFFFFF" fill-rule="nonzero"></path>
                <path d="M33.5774,25.4482 C33.4948,25.4502 33.4267,25.4772 33.3731,25.5291 C33.3196,25.5809 33.2919,25.6459 33.29,25.7239 C33.2919,25.8013 33.3196,25.866 33.3731,25.9182 C33.4267,25.9703 33.4948,25.9974 33.5774,25.9995 C33.6582,25.9974 33.7254,25.9703 33.7791,25.9182 C33.8328,25.866 33.8607,25.8013 33.8627,25.7239 C33.8607,25.6459 33.833,25.5809 33.7794,25.5291 C33.7258,25.4772 33.6585,25.4502 33.5774,25.4482 Z M33.5774,25.9387 C33.5144,25.9372 33.4625,25.9162 33.4216,25.8759 C33.3807,25.8355 33.3596,25.7848 33.3581,25.7239 C33.3596,25.6626 33.3807,25.612 33.4216,25.572 C33.4625,25.5319 33.5144,25.5112 33.5774,25.5097 C33.6391,25.5112 33.6902,25.5319 33.7308,25.572 C33.7714,25.612 33.7925,25.6626 33.794,25.7239 C33.7925,25.7848 33.7714,25.8355 33.7308,25.8759 C33.6902,25.9162 33.6391,25.9372 33.5774,25.9387 L33.5774,25.9387 Z M33.5939,25.5948 L33.4736,25.5948 L33.4736,25.8509 L33.5293,25.8509 L33.5293,25.7549 L33.5547,25.7549 L33.6338,25.8509 L33.7005,25.8509 L33.6152,25.7543 C33.6419,25.751 33.6623,25.7425 33.6767,25.7289 C33.691,25.7152 33.6983,25.6978 33.6984,25.6766 C33.6982,25.6513 33.6892,25.6314 33.6712,25.617 C33.6532,25.6025 33.6275,25.5951 33.5939,25.5948 L33.5939,25.5948 Z M33.5932,25.6428 C33.6082,25.6428 33.6199,25.6457 33.6284,25.6513 C33.6369,25.657 33.6412,25.6654 33.6414,25.6766 C33.6412,25.6881 33.6369,25.6967 33.6284,25.7024 C33.6199,25.7082 33.6082,25.711 33.5932,25.711 L33.5293,25.711 L33.5293,25.6428 L33.5932,25.6428 Z" id="Shape" fill="#FFFFFF" fill-rule="nonzero"></path>
            </g>
            <g id="Page-1" transform="translate(120.000000, 6.981277)" fill-rule="nonzero">
                <polygon id="Fill-4" fill="#FFFFFF" points="21.6031289 18.5304178 24.7064178 0.316017778 29.6728178 0.316017778 26.56384 18.5304178"></polygon>
                <path d="M44.5725867,0.765155558 C43.5898311,0.395377778 42.0481422,0 40.1224533,0 C35.2172089,0 31.7612089,2.4704 31.7313422,6.01031111 C31.7028978,8.6272 34.1974755,10.0892445 36.0804978,10.9596445 C38.01472,11.8528 38.6646755,12.4216889 38.6561422,13.2195556 C38.64192,14.4398222 37.1116089,14.9973334 35.6836978,14.9973334 C33.6982755,14.9973334 32.6415644,14.7214222 31.0116978,14.0416 L30.37312,13.7528889 L29.6748089,17.8304 C30.83392,18.3381334 32.9786311,18.7790222 35.2058311,18.8017778 C40.4253867,18.8017778 43.8116978,16.3598222 43.8500978,12.5781334 C43.8700089,10.5073778 42.5473422,8.93013334 39.6829867,7.63022222 C37.9478755,6.78684445 36.8840533,6.22506667 36.8954311,5.37173334 C36.8954311,4.61368889 37.7942755,3.80444445 39.7398755,3.80444445 C41.3612089,3.77884445 42.5388089,4.13297778 43.4532978,4.50275556 L43.8998755,4.71324445 L44.5725867,0.765155558 Z" id="Fill-6" fill="#FFFFFF"></path>
                <path d="M51.1808,12.0748089 C51.5918222,11.0252089 53.1591111,6.98183111 53.1591111,6.98183111 C53.1306667,7.03160889 53.5672889,5.92796445 53.8176,5.24387556 L54.1532444,6.81400889 C54.1532444,6.81400889 55.1032889,11.1617422 55.3024,12.0748089 L51.1808,12.0748089 Z M57.3034667,0.334364445 L53.4663111,0.334364445 C52.2773333,0.334364445 51.3884444,0.658631108 50.8664889,1.84476445 L43.4951111,18.5373867 L48.7089778,18.5373867 C48.7089778,18.5373867 49.5580444,16.29312 49.7528889,15.7996089 C50.3217778,15.7996089 55.3863111,15.8081422 56.1116444,15.8081422 C56.2581333,16.4452978 56.7146667,18.5373867 56.7146667,18.5373867 L61.3226667,18.5373867 L57.3034667,0.334364445 Z" id="Fill-8" fill="#FFFFFF"></path>
                <path d="M17.4391467,0.329671111 L12.5779911,12.75136 L12.05888,10.2283378 C11.1557689,7.31704889 8.33692444,4.16398222 5.18385778,2.58531556 L9.62830222,18.5170489 L14.8805689,18.5099378 L22.6971022,0.329671111 L17.4391467,0.329671111 Z" id="Fill-10" fill="#FFFFFF"></path>
                <path d="M8.06968889,0.318577778 L0.061155555,0.318577778 L0,0.696888888 C6.22791111,2.20586667 10.3509333,5.8496 12.0590222,10.2272 L10.3196444,1.856 C10.0195555,0.702577778 9.14773333,0.3584 8.06968889,0.318577778" id="Fill-12" fill="#F9A51A"></path>
            </g>
            <g id="Group-9" transform="translate(192.000000, 5.000000)" fill="#FF8301" fill-rule="nonzero">
                <g id="Group-11">
                    <path d="M0.0308707064,13.4961836 C0.0308707064,13.2178366 0.0227873547,12.9391714 0.0326413463,12.661222 C0.0515794851,12.1252906 0.382612005,11.781235 0.872309184,11.7750301 C1.37463178,11.768666 1.71097622,12.0861519 1.74192391,12.6292428 C1.78403432,13.3685051 1.73961438,14.1198592 1.84985591,14.8469502 C2.25918147,17.5464948 4.3291355,19.6774127 6.92073519,20.1358619 C8.34956392,20.3885938 9.70856787,20.1697504 10.9698787,19.4348633 C12.6111842,18.4785874 14.2452531,17.5081514 15.8657728,16.5146459 C19.8798884,14.0535936 19.8436288,7.78279077 15.6576841,5.39031095 C15.3325024,5.20448109 15.0019318,5.02366292 14.6978438,4.80481963 C14.3191579,4.53227979 14.2367848,4.03508948 14.4677378,3.63924644 C14.6908382,3.25700652 15.1440449,3.08414339 15.5347402,3.28206492 C17.8428837,4.45161563 19.5948926,6.1411081 20.2730474,8.80278659 C21.1679899,12.315655 19.9407061,16.0930285 16.664408,18.0887902 C15.0853059,19.0506346 13.4974276,19.9977623 11.9007731,20.9280253 C7.0671594,23.7441907 1.02150477,20.7408431 0.126793152,15.079158 C0.0446508977,14.5591366 0.0404167605,14.02591 -4.39592736e-16,13.4988088 C0.0103158965,13.4979337 0.0205548093,13.4970587 0.0308707064,13.4961836" id="Path"></path>
                    <path d="M8.20399426,13.5510576 C9.58070469,12.727949 10.957415,11.9048405 12.4357446,11.0209554 C10.9551055,10.1369113 9.57801016,9.31467783 8.07673926,8.41830336 C8.07673926,8.77596218 8.07889481,9.0162841 8.07635433,9.25660609 C8.06957973,9.89221412 7.76410594,10.254646 7.23222143,10.2613282 C6.67323833,10.2683286 6.35298365,9.90907884 6.34397648,9.25811745 C6.33935741,8.92678984 6.33188994,8.59482583 6.34497728,8.26389597 C6.39609485,6.96968967 7.68496608,6.17179866 8.78068378,6.7981789 C10.3510097,7.69606485 11.904553,8.62704376 13.4431613,9.58196738 C14.5111645,10.2448613 14.5117804,11.7948223 13.4440851,12.4570798 C11.9053228,13.411526 10.3509327,14.340914 8.7807607,15.2391181 C7.69913117,15.8578615 6.42103777,15.0886882 6.34944236,13.813574 C6.32796374,13.4304591 6.33304471,13.0443212 6.34913443,12.6605698 C6.37192178,12.115331 6.73274724,11.7664227 7.23691739,11.7752529 C7.72022497,11.7838443 8.05364395,12.1360937 8.07327494,12.6725024 C8.08320591,12.9436898 8.07496864,13.2155933 8.07496864,13.4871785 C8.11800282,13.508498 8.16096008,13.529738 8.20399426,13.5510576" id="Fill-6"></path>
                    <path d="M0.031679042,8.55178903 C-0.0742513639,3.9187708 3.08210521,0.834042993 6.65348418,0.136146895 C8.53113141,-0.230739782 10.2932252,0.159773379 11.9487727,1.11604934 C12.2731076,1.30339065 12.5975965,1.49176612 12.9118464,1.69629033 C13.3512729,1.98219464 13.478374,2.50404559 13.2293296,2.93560678 C12.9926029,3.34584846 12.5073708,3.47193593 12.0525476,3.24108052 C11.2839362,2.85104466 10.5496599,2.34375144 9.74093984,2.09086055 C6.06640186,0.941913404 2.25221439,3.55633895 1.79361887,7.49933654 C1.7252568,8.08777124 1.77829899,8.69060454 1.76251721,9.28643744 C1.74650448,9.89507791 1.42994501,10.2527367 0.920616839,10.2613282 C0.41721645,10.26984 0.0670918231,9.94917224 0.0349123837,9.42604849 C0.016975039,9.13568931 0.031679042,8.8432619 0.031679042,8.55178903" id="Path"></path>
                    <path d="M4.92041347,11.0180916 C4.92041347,11.959253 4.91179122,12.9005735 4.92210713,13.8416553 C4.94728099,16.1241169 7.29599526,17.6353368 9.28942691,16.6477179 C9.71622788,16.4363524 10.112697,16.1603918 10.5352639,15.9388438 C10.9465141,15.723103 11.4064953,15.8732147 11.6422212,16.2683418 C11.8772543,16.6623552 11.8068907,17.1736259 11.4148865,17.4308125 C10.5174035,18.0195654 9.61168312,18.5678271 8.50895993,18.708154 C6.44593449,18.9706706 4.12739813,17.5515701 3.48034502,15.4227205 C3.31398194,14.8752543 3.21390235,14.2853081 3.20266263,13.7123062 C3.16724986,11.91025 3.18688085,10.1069208 3.18826657,8.30406891 C3.19034515,5.5956943 5.2489055,3.37973696 7.87168381,3.28642428 C8.78848998,3.25388814 9.64393961,3.51839339 10.4388796,3.99442328 C11.9363013,4.89119552 13.438573,5.77929674 14.9345321,6.67877367 C18.207289,8.64653359 18.2309231,13.3212363 14.9799528,15.3210551 C14.6716307,15.5107033 14.3630776,15.7011471 14.0459022,15.8740102 C13.6013948,16.1164005 13.1154699,15.9716982 12.8802829,15.5430804 C12.6514855,15.1260769 12.7640365,14.6364438 13.174055,14.3630289 C13.4969272,14.1477655 13.8394304,13.9642426 14.1684613,13.7584454 C16.1680516,12.5076738 16.195843,9.55619303 14.1954827,8.30653503 C12.6488681,7.34023566 11.0823913,6.40519968 9.49820828,5.50627959 C7.38183273,4.30546555 4.93427065,5.82265173 4.92249205,8.31385363 C4.91825791,9.21523979 4.92187617,10.1167055 4.92187617,11.0180916 L4.92041347,11.0180916 Z" id="Path"></path>
                </g>
            </g>
            <g id="telcell-logo" transform="translate(223.000000, 6.981277)" fill="#F36F31" fill-rule="nonzero">
                <path d="M55.990566,10.0943396 L47.8773585,10.0943396 C47.8537736,11.2971698 48.6320755,12.1226415 49.7877358,12.1698113 C50.5188679,12.1933962 51.1792453,12.0518868 51.6037736,11.3679245 L51.6745283,11.2735849 L55.8254717,11.25 C55.8254717,11.25 55.7783019,11.4622642 55.754717,11.5330188 C55.3066038,13.0660378 54.2688679,13.9858491 52.7358491,14.3867925 C50.9198113,14.8820755 49.0801887,14.8820755 47.2641509,14.4339622 C45.4009434,13.9858491 44.2924528,12.8066038 43.9622642,10.8962264 C43.7264151,9.62264154 43.7264151,8.32547169 43.9858491,7.05188679 C44.3632075,5.25943396 45.4716981,4.12735849 47.240566,3.70283019 C49.0566038,3.27830188 50.8726415,3.27830188 52.6886792,3.75 C54.5518868,4.24528302 55.5896226,5.49528302 55.8726415,7.38207547 C55.990566,8.16037738 55.990566,9.92924531 55.990566,10.0943396 M51.9575472,7.94811323 C51.8160378,6.58018868 51.0849057,5.96698113 49.7169812,6.03773585 C48.6320755,6.08490566 47.9245283,6.81603774 47.8773585,7.94811323 L51.9575472,7.94811323 Z" id="Shape"></path>
                <path d="M24.1745283,11.2735849 C23.9386792,12.2641509 23.490566,13.0660378 22.7122642,13.6556604 C21.9103774,14.2688679 20.9433962,14.5518868 19.9764151,14.6698113 C18.5613208,14.8349057 17.1226415,14.8349057 15.7311321,14.504717 C13.7028302,13.9858491 12.5471698,12.6650943 12.2877358,10.5660378 C12.1462264,9.41037738 12.1462264,8.254717 12.3820755,7.0990566 C12.759434,5.23584905 13.9150943,4.12735849 15.754717,3.70283019 C17.4528302,3.3254717 19.1509434,3.3254717 20.8254717,3.70283019 C22.9009434,4.1745283 24.0801887,5.51886792 24.3160378,7.64150943 C24.4103774,8.44339623 24.4339622,9.29245285 24.3867925,10.1179245 C21.6037736,10.1179245 18.9622642,10.0943396 16.25,10.0943396 C16.2971698,11.7924528 17.7830188,12.7122642 19.2924528,12.004717 C19.5990566,11.8632075 19.9764151,11.4858491 20.1886792,11.2971698 C21.509434,11.2735849 22.8066038,11.2735849 24.1745283,11.2735849 M20.3301887,7.94811323 C20.3537736,6.79245283 19.5518868,6.03773585 18.3254717,6.03773585 C17.0754717,6.03773585 16.2735849,6.79245283 16.2971698,7.94811323 L20.3301887,7.94811323 Z" id="Shape"></path>
                <polygon id="Path" points="4.24528302 3.58490566 -1.67580834e-15 3.58490566 6.53301887 0.636792453 5.4009434 0.636792453 -1.67580834e-15 3.18396226 -1.67580834e-15 2.59433962 4.33962264 0.636792453 3.25471698 0.636792453 -1.67580834e-15 2.14622642 -1.67580834e-15 1.58018868 2.05188679 0.660377358 1.08490566 0.660377358 -1.67580834e-15 1.10849057 -1.67580834e-15 0.0235849057 13.3962264 0.0235849057 13.3962264 1.08490566 12.3584905 0.636792453 11.3443396 0.636792453 13.3962264 1.58018868 13.3962264 2.0990566 10.1415095 0.636792453 9.05660377 0.636792453 13.3962264 2.57075472 13.3962264 3.08962264 8.23113208 0.636792453 6.86320755 0.636792453 13.3962264 3.58490566 9.15094338 3.58490566 9.15094338 14.4339622 4.24528302 14.4339622"></polygon>
                <path d="M43.0424528,10.259434 C42.9716981,10.8962264 42.7830188,11.4150943 42.5943396,11.9575472 C42.0754717,13.3490566 40.990566,14.1509434 39.5990566,14.4811321 C37.8301887,14.9056604 36.0377358,14.9056604 34.2688679,14.4811321 C32.3584905,14.009434 31.25,12.759434 30.9433962,10.8254717 C30.7311321,9.55188677 30.7311321,8.254717 31.0377358,6.98113208 C31.4386792,5.23584905 32.5471698,4.1745283 34.2688679,3.77358491 C36.0849057,3.3490566 37.9245283,3.3254717 39.7169812,3.82075472 C41.745283,4.36320755 42.6415095,5.70754717 42.9245283,7.61792453 C42.9245283,7.68867925 42.9481132,7.78301885 42.9481132,7.85377362 C41.6273585,7.85377362 40.3066038,7.85377362 38.9858491,7.85377362 C38.9150943,7.61792453 38.8443396,7.38207547 38.75,7.16981132 C38.4669812,6.48584905 37.9481132,6.13207547 37.2169812,6.08490566 C36.9575472,6.06132075 36.6745283,6.06132075 36.4150943,6.10849057 C35.5896226,6.25 35.1415095,6.76886792 34.9528302,7.54716981 C34.7169812,8.58490569 34.6933962,9.62264154 34.9292453,10.6367925 C35.1650943,11.7216981 35.7783019,12.2169812 36.8867925,12.2169812 C38.0188679,12.2169812 38.6084905,11.7688679 38.8915095,10.6603774 C38.9150943,10.5424528 38.9386792,10.4009434 38.9858491,10.2830188 L43.0424528,10.2830188 L43.0424528,10.259434 Z" id="Path"></path>
                <path d="M61.3679245,14.4575472 L57.0990566,14.4575472 C57.0990566,14.4575472 57.0990566,11.0377358 57.0990566,9.504717 L57.0990566,0.400943396 L57.0990566,0 L61.3679245,0 L61.3679245,14.4575472 Z" id="Path"></path>
                <rect id="Rectangle" x="25.5188679" y="0" width="4.22169812" height="14.4339622"></rect>
                <rect id="Rectangle" x="62.6179245" y="0" width="4.22169812" height="14.4339622"></rect>
                <polygon id="Path" points="44.3632075 19.9764151 4.31603774 19.9764151 4.31603774 16.3679245 43.4198113 16.3679245"></polygon>
                <polygon id="Path" points="45.7311321 20 44.8584905 16.3443396 45.990566 16.3443396 46.3915095 18.7028302 46.8396226 16.3443396 47.8301887 16.3443396 48.2783019 18.7028302 48.6556604 16.3443396 49.7641509 16.3443396 48.8915095 20 47.7358491 20 47.3113208 17.8066038 46.9103774 20"></polygon>
                <path d="M64.6226415,20 L64.6226415,17.3113208 L63.5613208,17.3113208 L63.5613208,16.3443396 L66.8160378,16.3443396 L66.8160378,17.3113208 L65.7783019,17.3113208 L65.7783019,20 L64.6226415,20 L64.6226415,20 Z M60.3066038,20 L60.3066038,16.3443396 L63.2311321,16.3443396 L63.2311321,17.2169812 L61.4858491,17.2169812 L61.4858491,17.7122642 L62.9716981,17.7122642 L62.9716981,18.5613208 L61.4858491,18.5613208 L61.4858491,19.1037736 L63.3018868,19.1037736 L63.3018868,20 L60.3066038,20 Z M57.0518868,20 L57.0518868,16.3443396 L58.2311321,16.3443396 L58.2311321,19.0330188 L59.8349057,19.0330188 L59.8349057,20 L57.0518868,20 Z M53.8207547,20 L53.8207547,16.3443396 L55,16.3443396 L55,19.0330188 L56.6037736,19.0330188 L56.6037736,20 L53.8207547,20 Z M49.7169812,20 L51.0141509,16.3443396 L52.1933962,16.3443396 L53.490566,20 L52.3349057,20 L52.1933962,19.504717 L51.0377358,19.504717 L50.8962264,20 L49.7169812,20 Z M51.2264151,18.75 L51.9575472,18.75 L51.5801887,17.4764151 L51.2264151,18.75 Z" id="Shape"></path>
            </g>
            <g id="Group-Copy" transform="translate(300.800231, 0.000000)">
                <rect id="Rectangle" fill="#0A2973" x="0" y="0" width="53.5897436" height="32"></rect>
                <g id="Group-2" transform="translate(8.000000, 6.000000)" fill-rule="nonzero">
                    <g id="ԱՊԱՌԻԿ" transform="translate(9.397436, 15.525641)" fill="#FFFFFF">
                        <path d="M0,0.0641025641 L1.12820513,0.0641025641 L1.12820513,3.41987179 C1.14102564,3.93055556 1.3792735,4.18589744 1.84294872,4.18589744 C2.07799145,4.18589744 2.2542735,4.1207265 2.37179487,3.99038462 C2.48931624,3.86004274 2.54807692,3.65277778 2.54807692,3.36858974 L2.54807692,0.0641025641 L3.67307692,0.0641025641 L3.67307692,3.20512821 L4.39423077,3.77564103 L4.39423077,5.09294872 L3.42307692,4.32371795 C3.27350427,4.56089744 3.06356838,4.74145299 2.79326923,4.86538462 C2.52297009,4.98931624 2.20619658,5.05128205 1.84294872,5.05128205 C1.4732906,5.05128205 1.15010684,4.9866453 0.873397436,4.85737179 C0.596688034,4.72809829 0.381944444,4.53685897 0.229166667,4.28365385 C0.0763888889,4.03044872 0,3.72542735 0,3.36858974 L0,0.0641025641 Z" id="Path"></path>
                        <path d="M7.48076923,0 C8.01495726,0 8.46794872,0.0822649573 8.83974359,0.246794872 C9.21153846,0.411324786 9.4909188,0.637820513 9.67788462,0.926282051 C9.86485043,1.21474359 9.95833333,1.54166667 9.95833333,1.90705128 L9.95833333,4.98717949 L8.83012821,4.98717949 L8.83012821,1.85576923 C8.83012821,1.63995726 8.75854701,1.45299145 8.61538462,1.29487179 C8.47222222,1.13675214 8.28205128,1.02136752 8.04487179,0.948717949 L8.04487179,3.53525641 L6.91666667,3.53525641 L6.91666667,0.945512821 C6.67307692,1.02029915 6.48130342,1.14049145 6.34134615,1.30608974 C6.20138889,1.47168803 6.13141026,1.67200855 6.13141026,1.90705128 L6.13141026,2.55769231 L5.00320513,2.55769231 L5.00320513,1.90705128 C5.00320513,1.53739316 5.09241453,1.20940171 5.27083333,0.923076923 C5.44925214,0.636752137 5.72382479,0.411324786 6.09455128,0.246794872 C6.46527778,0.0822649573 6.92735043,0 7.48076923,0 Z" id="Path"></path>
                        <path d="M10.7019231,0.0641025641 L11.8301282,0.0641025641 L11.8301282,3.41987179 C11.8429487,3.93055556 12.0811966,4.18589744 12.5448718,4.18589744 C12.7799145,4.18589744 12.9561966,4.1207265 13.0737179,3.99038462 C13.1912393,3.86004274 13.25,3.65277778 13.25,3.36858974 L13.25,0.0641025641 L14.375,0.0641025641 L14.375,3.20512821 L15.0961538,3.77564103 L15.0961538,5.09294872 L14.125,4.32371795 C13.9754274,4.56089744 13.7654915,4.74145299 13.4951923,4.86538462 C13.2248932,4.98931624 12.9081197,5.05128205 12.5448718,5.05128205 C12.1752137,5.05128205 11.8520299,4.9866453 11.5753205,4.85737179 C11.2986111,4.72809829 11.0838675,4.53685897 10.9310897,4.28365385 C10.778312,4.03044872 10.7019231,3.72542735 10.7019231,3.36858974 L10.7019231,0.0641025641 Z" id="Path"></path>
                        <path d="M20.3333333,3.52884615 L19.4102564,3.52884615 L19.4102564,4.98717949 L18.2852564,4.98717949 L18.2852564,3.52884615 L18.2820513,3.52884615 L18.2820513,2.69230769 L18.2852564,2.69230769 L18.2852564,1.68269231 C18.2852564,1.39850427 18.2264957,1.19123932 18.1089744,1.06089744 C17.991453,0.930555556 17.8151709,0.865384615 17.5801282,0.865384615 C17.116453,0.865384615 16.8782051,1.1207265 16.8653846,1.63141026 L16.8653846,4.98717949 L15.7371795,4.98717949 L15.7371795,1.68269231 C15.7371795,1.3258547 15.8135684,1.02083333 15.9663462,0.767628205 C16.1191239,0.514423077 16.3338675,0.323183761 16.6105769,0.193910256 C16.8872863,0.0646367521 17.2104701,0 17.5801282,0 C17.9497863,0 18.2724359,0.0646367521 18.5480769,0.193910256 C18.8237179,0.323183761 19.0363248,0.513888889 19.1858974,0.766025641 C19.3354701,1.01816239 19.4102564,1.32371795 19.4102564,1.68269231 L19.4102564,2.69230769 L20.3333333,2.69230769 L20.3333333,3.52884615 Z" id="Path"></path>
                        <path d="M20.8782051,0.0641025641 L22.0032051,0.0641025641 L22.0032051,1.2275641 C22.2339744,1.11431624 22.4690171,1.05769231 22.7083333,1.05769231 C23.0779915,1.05769231 23.4011752,1.12232906 23.6778846,1.25160256 C23.954594,1.38087607 24.1693376,1.57211538 24.3221154,1.82532051 C24.4748932,2.07852564 24.5512821,2.38354701 24.5512821,2.74038462 L24.5512821,3.82051282 L23.4230769,3.82051282 L23.4230769,2.68910256 C23.4102564,2.1784188 23.1720085,1.92307692 22.7083333,1.92307692 C22.4818376,1.92307692 22.3076923,2.00747863 22.1858974,2.17628205 C22.0641026,2.34508547 22.0032051,2.5758547 22.0032051,2.86858974 L22.0032051,4.98717949 L20.8782051,4.98717949 L20.8782051,0.0641025641 Z" id="Path"></path>
                        <path d="M28.8846154,1.52564103 L28.8846154,4.98717949 L27.7596154,4.98717949 L27.7596154,3.82692308 C27.5331197,3.93803419 27.2980769,3.99358974 27.0544872,3.99358974 C26.6848291,3.99358974 26.3616453,3.92895299 26.0849359,3.79967949 C25.8082265,3.67040598 25.5934829,3.47916667 25.4407051,3.22596154 C25.2879274,2.97275641 25.2115385,2.66773504 25.2115385,2.31089744 L25.2115385,0.0641025641 L26.3397436,0.0641025641 L26.3397436,2.36217949 C26.3525641,2.87286325 26.590812,3.12820513 27.0544872,3.12820513 C27.2831197,3.12820513 27.4577991,3.04861111 27.5785256,2.88942308 C27.6992521,2.73023504 27.7596154,2.50534188 27.7596154,2.21474359 L27.7596154,1.52564103 L28.8846154,1.52564103 Z" id="Path"></path>
                    </g>
                    <g id="vtb-2018-seeklogo.com">
                        <path d="M11.1589751,0 L2.49309963,0 L1.8636711,1.80523095 L10.5295462,1.80523095 L11.1589751,0 Z M10.2146368,2.72036283 L1.5491522,2.72036283 L0.91972366,4.52559361 L9.58559888,4.52559361 L10.2146368,2.72036283 Z M9.27068941,5.4152824 L0.605204721,5.4152824 L0,7.22051327 L8.66548436,7.22051327 L9.27068941,5.4152824 Z" id="Fill-1" fill="#009FDF"></path>
                        <path d="M34.9324541,7.53163462 L34.9324541,7.56781486 C35.3227435,7.71332524 35.6947985,7.9677688 35.8899432,8.13116937 C36.4928351,8.64005689 36.7589767,9.31234498 36.7589767,10.18461 C36.7589767,11.6198318 36.0140905,12.6558948 34.7908485,12.982696 C34.4184052,13.0920274 34.0281163,13.1282059 33.3010766,13.1282059 L29.5952693,13.1282059 L29.5952693,2.62564283 L32.8754829,2.62564283 C33.5493717,2.62564283 34.010658,2.66182142 34.4184052,2.77075525 C35.6063433,3.09795403 36.3865338,3.9340403 36.3865338,5.26032844 C36.3865338,5.96879512 36.1382383,6.56872562 35.7304907,6.96828175 C35.5531925,7.14997073 35.3048974,7.36823569 34.9324541,7.53163627 L34.9324541,7.53163462 Z M31.6522405,8.64005524 L31.6522405,11.4019626 L33.0706276,11.4019626 C33.4962213,11.4019626 33.8865102,11.3657824 34.1701101,11.093052 C34.45371,10.8207179 34.5778577,10.4752309 34.5778577,10.0212078 C34.5778577,9.67572088 34.4894025,9.34852192 34.3121039,9.11236636 C34.010658,8.73109863 33.6382151,8.64005524 32.9996307,8.64005524 L31.6522405,8.64005524 Z M31.6343932,6.82316794 L32.7870265,6.82316794 C33.1416233,6.82316794 33.3189215,6.82316794 33.4962201,6.76830355 C33.9749642,6.62319097 34.2764102,6.18705844 34.2764102,5.58752534 C34.2764102,4.87866086 33.957506,4.56975031 33.4962201,4.42463814 C33.3010754,4.36977375 33.1063186,4.35188315 32.7160296,4.35188315 L31.6343932,4.35188315 L31.6343932,6.82316794 L31.6343932,6.82316794 Z M23.6904958,13.1282043 L23.6904958,4.38806174 L20.7295742,4.38806174 L20.7295742,2.62564119 L28.9570715,2.62564119 L28.3716379,4.38806174 L25.747467,4.38806174 L25.747467,13.1282043 L23.6904958,13.1282043 L23.6904958,13.1282043 Z M15.0393446,13.1282043 L11.8153854,2.62564119 L14.0768122,2.62564119 L15.3279878,7.18654549 C15.6887916,8.54265106 15.8812206,9.25747894 16.1217566,10.3917414 C16.3382391,9.30677733 16.4825609,8.78914342 16.8914723,7.26049307 L18.1426474,2.62564119 L20.30786,2.62564119 L17.0357937,13.1282043 L15.0393446,13.1282043 L15.0393446,13.1282043 Z" id="Fill-2" fill="#FFFFFF"></path>
                    </g>
                </g>
            </g>
            <g id="national-payment-system-mir" transform="translate(365.000000, 6.981277)" fill-rule="nonzero">
                <path d="M17.1351191,1.72120068e-07 L17.1351191,0.00786289506 C17.1272565,0.00786289506 14.650553,1.72120068e-07 13.9900987,2.36662814 C13.3846823,4.53669216 11.6785088,10.525335 11.6313335,10.6904486 L11.1595805,10.6904486 C11.1595805,10.6904486 9.41409417,4.56814237 8.80081521,2.35876559 C8.14036094,-0.00786220656 5.65579488,1.72120068e-07 5.65579488,1.72120068e-07 L0,1.72120068e-07 L0,18.0000002 L5.65841573,18.0000002 L5.65841573,7.30946985 L6.13016878,7.30946985 L9.43244012,18.0000002 L13.3610947,18.0000002 L16.663366,7.3173324 L17.1351191,7.3173324 L17.1351191,18.0000002 L22.7935348,18.0000002 L22.7935348,1.72120068e-07 L17.1351191,1.72120068e-07 L17.1351191,1.72120068e-07 Z M37.8057651,3.44251404e-07 C37.8057651,3.44251404e-07 36.1467669,0.14938881 35.3683744,1.88709444 L31.3610943,10.6904486 L30.8893413,10.6904486 L30.8893413,3.44251404e-07 L25.2309256,3.44251404e-07 L25.2309256,18.0000003 L30.5748393,18.0000003 C30.5748393,18.0000003 32.312463,17.842749 33.0909374,16.1129878 L37.019592,7.30955175 L37.491345,7.30955175 L37.491345,18.0000003 L43.1497608,18.0000003 L43.1497608,3.44251404e-07 L37.8057651,3.44251404e-07 Z M45.6656951,8.17443234 L45.6656951,18 L51.3241108,18 L51.3241108,12.2629588 L57.4543615,12.2629588 C60.1276288,12.2629588 62.3894226,10.5567852 63.2307155,8.17705319 L45.6656951,8.17705319 L45.6656951,8.17443234 L45.6656951,8.17443234 Z" id="Shape" fill="#4DB45E"></path>
                <path d="M57.4569005,3.44251409e-07 L44.8715775,3.44251409e-07 C45.5005815,3.4280725 48.0715538,6.17734443 51.3947919,7.07367522 C52.1663047,7.28263493 52.9621099,7.3884173 53.7614197,7.38825933 L63.4611865,7.38825933 C63.5476746,6.97940652 63.5869874,6.56269132 63.5869874,6.13025103 C63.5869874,2.74403058 60.843039,3.44251409e-07 57.4569005,3.44251409e-07 L57.4569005,3.44251409e-07 Z" id="Path" fill="url(#linearGradient-1)"></path>
            </g>
        </g>
    </g>
</svg>